<svg xmlns="http://www.w3.org/2000/svg" width="50" height="48.777" viewBox="0 0 50 48.777"><path d="M46.646,17.816a24.891,24.891,0,0,0-9.1-9.1A24.452,24.452,0,0,0,25,5.365,24.455,24.455,0,0,0,12.451,8.718a24.888,24.888,0,0,0-9.1,9.1A24.454,24.454,0,0,0,0,30.364a24.3,24.3,0,0,0,4.769,14.7,24.485,24.485,0,0,0,12.321,9.033,1.457,1.457,0,0,0,1.3-.228,1.273,1.273,0,0,0,.423-.976q0-.1-.016-1.758t-.016-2.9l-.749.13a9.551,9.551,0,0,1-1.807.114,13.765,13.765,0,0,1-2.262-.228,5.055,5.055,0,0,1-2.181-.976,4.13,4.13,0,0,1-1.432-2l-.326-.749A8.134,8.134,0,0,0,9,42.865a3.928,3.928,0,0,0-1.416-1.237l-.228-.163a2.39,2.39,0,0,1-.423-.391,1.786,1.786,0,0,1-.293-.456q-.1-.228.163-.375a2.111,2.111,0,0,1,.944-.145l.651.1a4.752,4.752,0,0,1,1.611.781,5.254,5.254,0,0,1,1.579,1.692A5.738,5.738,0,0,0,13.395,44.7a3.832,3.832,0,0,0,2.132.7,9.257,9.257,0,0,0,1.855-.162,6.474,6.474,0,0,0,1.465-.489A5.274,5.274,0,0,1,20.442,41.4a22.289,22.289,0,0,1-3.336-.586,13.285,13.285,0,0,1-3.06-1.27,8.763,8.763,0,0,1-2.621-2.181,10.481,10.481,0,0,1-1.709-3.418,16.254,16.254,0,0,1-.667-4.883,9.494,9.494,0,0,1,2.572-6.706,8.751,8.751,0,0,1,.228-6.64,4.561,4.561,0,0,1,2.8.439,19.572,19.572,0,0,1,2.718,1.253q.863.52,1.384.879a23.509,23.509,0,0,1,12.5,0l1.237-.781a17.519,17.519,0,0,1,2.994-1.433,4.266,4.266,0,0,1,2.638-.358,8.666,8.666,0,0,1,.26,6.64,9.5,9.5,0,0,1,2.572,6.706,16.435,16.435,0,0,1-.667,4.9,10.074,10.074,0,0,1-1.724,3.418,9.1,9.1,0,0,1-2.637,2.165,13.31,13.31,0,0,1-3.06,1.27,22.266,22.266,0,0,1-3.336.587,5.8,5.8,0,0,1,1.692,4.622v6.868a1.3,1.3,0,0,0,.407.976,1.414,1.414,0,0,0,1.286.227A24.481,24.481,0,0,0,45.231,45.06,24.3,24.3,0,0,0,50,30.363,24.474,24.474,0,0,0,46.646,17.816Z" transform="translate(0 -5.365)" fill="#fff"/></svg>