<svg xmlns="http://www.w3.org/2000/svg" width="50" height="47.777" viewBox="0 0 50 47.777"><path d="M50,39.925V58.406H39.279V41.154c0-4.338-1.546-7.285-5.425-7.285a5.87,5.87,0,0,0-5.5,3.917A7.411,7.411,0,0,0,27.99,40.4v18H17.279s.144-29.208,0-32.233H27.992v4.569c-.015.038-.046.069-.06.11h.06v-.11a10.646,10.646,0,0,1,9.66-5.325C44.719,25.414,50,30.021,50,39.925ZM6.065,10.629C2.4,10.629,0,13.033,0,16.2a5.557,5.557,0,0,0,5.927,5.571h.065c3.746,0,6.067-2.485,6.067-5.571-.073-3.171-2.321-5.575-5.994-5.575ZM.64,58.406H11.354V26.169H.64Z" transform="translate(0 -10.629)" fill="#fff"/></svg>